<svg width="84" height="73" viewBox="0 0 84 73" fill="none" xmlns="http://www.w3.org/2000/svg">
<path fill-rule="evenodd" clip-rule="evenodd" d="M1.81254 0.235107C3.26614 3.40363 5.87327 6.04694 9.34258 7.46894C13.1587 9.03309 17.2585 8.80823 20.7197 7.18385C20.4333 9.11215 20.2841 11.0908 20.2841 13.1106C20.2841 25.964 26.3595 37.392 35.7831 44.6547C36.2843 44.894 36.7726 45.1779 37.2428 45.5073C43.6455 49.9937 51.4209 52.6235 59.8382 52.6235C63.4875 52.6235 67.0059 52.1297 70.3383 51.2109C75.7398 49.7216 81.3205 52.913 82.803 58.3392C84.2856 63.7653 81.1086 69.3714 75.7071 70.8607C70.6418 72.2573 65.3183 73 59.8382 73C56.1352 73 52.5085 72.6611 48.988 72.0126C49.0629 72.1016 49.1388 72.1897 49.2158 72.2768C21.2354 67.2413 0 42.6672 0 13.1106C0 9.77976 0.270663 6.50497 0.793098 3.30905C0.973374 2.20624 1.32363 1.17406 1.81254 0.235107Z" fill="#BAEDBD"/>
</svg>
